HIERARCHY
ROOT Hips
{
	OFFSET 0.00000 0.00000 0.00000
	CHANNELS 6 Xposition Yposition Zposition Zrotation Yrotation Xrotation 
	JOINT LHipJoint
	{
		OFFSET 0 0 0
		CHANNELS 3 Zrotation Yrotation Xrotation
		JOINT LeftHip
		{
			OFFSET 1.62964 -1.40469 0.78906
			CHANNELS 3 Zrotation Yrotation Xrotation
			JOINT LeftKnee
			{
				OFFSET 2.29640 -6.30932 0.00000
				CHANNELS 3 Zrotation Yrotation Xrotation
				JOINT LeftAnkle
				{
					OFFSET 2.29451 -6.30412 0.00000
					CHANNELS 3 Zrotation Yrotation Xrotation
					JOINT LeftToe
					{
						OFFSET 0.03611 -0.09921 1.56387
						CHANNELS 3 Zrotation Yrotation Xrotation
						End Site
						{
							OFFSET 0.00000 -0.00000 0.80291
						}
					}
				}
			}
		}
	}
	JOINT RHipJoint
	{
		OFFSET 0 0 0
		CHANNELS 3 Zrotation Yrotation Xrotation
		JOINT RightHip
		{
			OFFSET -1.73712 -1.40469 0.78906
			CHANNELS 3 Zrotation Yrotation Xrotation
			JOINT RightKnee
			{
				OFFSET -2.28137 -6.26801 0.00000
				CHANNELS 3 Zrotation Yrotation Xrotation
				JOINT RightAnkle
				{
					OFFSET -2.28681 -6.28298 0.00000
					CHANNELS 3 Zrotation Yrotation Xrotation
					JOINT RightToe
					{
						OFFSET -0.15927 -0.43759 1.61103
						CHANNELS 3 Zrotation Yrotation Xrotation
						End Site
						{
							OFFSET -0.00000 -0.00000 0.84630
						}
					}
				}
			}
		}
	}
	JOINT lowerback
	{
		OFFSET 0 0 0
		CHANNELS 3 Zrotation Yrotation Xrotation
		JOINT Chest
		{
			OFFSET -0.04227 2.04338 -0.00225
			CHANNELS 3 Zrotation Yrotation Xrotation
			JOINT Chest2
			{
				OFFSET -0.02148 2.04482 -0.04273
				CHANNELS 3 Zrotation Yrotation Xrotation
				JOINT lowerneck
				{
					OFFSET 0 0 0
					CHANNELS 3 Zrotation Yrotation Xrotation
					JOINT Neck
					{
						OFFSET 0.09180 1.44629 0.19359
						CHANNELS 3 Zrotation Yrotation Xrotation
						JOINT Head
						{
							OFFSET 0.00887 1.40645 0.14750
							CHANNELS 3 Zrotation Yrotation Xrotation
							End Site
							{
								OFFSET -0.00669 1.50671 0.03707
							}
						}
					}
				}
				JOINT LeftCollar
				{
					OFFSET 0 0 0
					CHANNELS 3 Zrotation Yrotation Xrotation
					JOINT LeftShoulder
					{
						OFFSET 2.17674 1.86763 -0.06520
CHANNELS 3 Zrotation Xrotation Yrotation
						JOINT LeftElbow
						{
OFFSET 0 -4.657760 0.000000
CHANNELS 3 Zrotation Xrotation Yrotation
							JOINT LeftWrist
							{
OFFSET 0 -3.555390 0.000000
CHANNELS 3 Zrotation Xrotation Yrotation
								JOINT lhand
								{
									OFFSET 0 0 0
CHANNELS 3 Zrotation Xrotation Yrotation
									JOINT LFingers
									{
OFFSET 0 -0.707260 0.000000
CHANNELS 3 Zrotation Xrotation Yrotation
										End Site
										{
OFFSET 0 -0.570220 0.000000
										}
									}
								}
								JOINT LThumb
								{
OFFSET 0 0.000000 0.000000
CHANNELS 3 Zrotation Xrotation Yrotation
									End Site
									{
OFFSET 0 -0.578920 0.578920
									}
								}
							}
						}
					}
				}
				JOINT RightCollar
				{
					OFFSET 0 0 0
					CHANNELS 3 Zrotation Yrotation Xrotation
					JOINT RightShoulder
					{
						OFFSET -2.80694 1.55459 -0.32496
CHANNELS 3 Zrotation Xrotation Yrotation
						JOINT RightElbow
						{
OFFSET 0 -4.719250 -0.000000
CHANNELS 3 Zrotation Xrotation Yrotation
							JOINT RightWrist
							{
OFFSET 0 -3.569900 0.000000
CHANNELS 3 Zrotation Xrotation Yrotation
								JOINT rhand
								{
									OFFSET 0 0 0
CHANNELS 3 Zrotation Xrotation Yrotation
									JOINT RFingers
									{
OFFSET 0 -0.507760 0.000000
CHANNELS 3 Zrotation Xrotation Yrotation
										End Site
										{
OFFSET 0 -0.409370 0.000000
										}
									}
								}
								JOINT RThumb
								{
OFFSET 0 0.000000 0.000000
CHANNELS 3 Zrotation Xrotation Yrotation
									End Site
									{
OFFSET 0 -0.415620 0.415620
									}
								}
							}
						}
					}
				}
			}
		}
	}
}
MOTION
Frames: 6
Frame Time: .0083333
10.3062 16.5247 4.3279 -1.7933 -3.1634 27.4406 0.0000 0.0000 0.0000 -14.3157 -12.1136 -26.8945 0.0446 1.3629 3.7480 -0.0071 4.0149 -5.4267 1.8302 -8.5030 -24.2527 0.0000 0.0000 0.0000 9.6424 22.0635 -36.3018 -2.4989 -9.8359 28.4469 -1.6884 1.5268 -24.1412 -3.1632 10.9546 -32.1270 -7.3072 -3.7570 -19.2837 -0.5980 -3.1131 3.9110 2.4418 -2.0419 15.8338 -3.3134 1.2741 2.0473 5.9186 0.4521 27.4430 2.5839 0.3137 8.0938 0.0000 0.0000 0.0000 20.8369 -5.0989 -30.3346 30.9015 -41.6537 12.0043 22.3298 -5.2311 10.6738 0.0 0.0 0.0 -7.1250 0.0 0.0 -3.3406 18.4745 -2.1135 0.0000 0.0000 0.0000 -12.957 18.1686 30.0357 -40.8636 -48.5733 -19.0842 -2.3128 -3.3874 57.3658 0.0 0.0 0.0 7.1250 0.0 -0.0 85.1959 72.9571 -67.1958
10.2837 16.5251 4.3313 -1.7509 -3.0990 27.1648 0.0000 0.0000 0.0000 -14.2955 -12.1909 -26.4678 0.0418 1.3190 3.6271 -0.0114 4.1542 -5.4461 1.9658 -8.7944 -25.1542 0.0000 0.0000 0.0000 9.7948 22.0250 -36.0522 -2.3604 -9.5795 27.6256 -1.6470 1.1263 -23.9455 -3.3492 11.2400 -33.0937 -7.1666 -3.7414 -19.2637 -0.5933 -3.1301 3.9193 2.3630 -2.0368 15.8233 -4.0621 1.5565 3.1349 6.7364 0.6988 26.6805 2.9743 0.4081 7.6120 -0.0000 -0.0000 0.0000 20.4017 -5.4221 -30.5046 31.5242 -42.1645 12.4203 22.8568 -5.9042 10.8932 0.0 0.0 0.0 -7.1250 0.0 0.0 -2.9769 18.1929 -1.9012 -0.0000 -0.0000 0.0000 -13.0146 17.9991 30.2926 -40.8894 -48.5881 -19.1036 -2.4224 -3.2935 57.4838 0.0 0.0 0.0 7.1250 0.0 -0.0 85.5607 73.0017 -67.6188
10.2600 16.5260 4.3381 -1.7348 -2.9956 26.8577 0.0000 0.0000 0.0000 -14.3087 -12.0526 -26.1012 0.0404 1.2968 3.5659 -0.0085 4.0305 -5.3848 2.0444 -8.9580 -25.6639 0.0000 0.0000 0.0000 10.1067 21.8391 -35.7875 -2.3066 -9.4775 27.3006 -1.6764 1.0120 -24.1955 -3.3069 11.1761 -32.8760 -7.0104 -3.7166 -19.3478 -0.5709 -3.1297 3.9918 2.2942 -2.0275 15.9529 -5.2611 1.5559 3.3370 9.1733 0.2922 25.4211 3.9461 0.2866 7.1355 -0.0000 0.0000 0.0000 20.01 -5.8302 -30.6721 32.1327 -42.6527 12.8306 23.043 -6.6365 11.1822 0.0 0.0 0.0 -7.1250 0.0 0.0 -2.8576 17.8648 -1.8455 -0.0000 0.0000 0.0000 -13.1064 17.6452 30.5619 -40.8575 -48.5698 -19.0797 -2.7649 -2.9686 57.5268 0.0 0.0 0.0 7.1250 0.0 -0.0 85.6389 73.1216 -67.8385
10.2372 16.5257 4.3422 -1.6865 -2.9218 26.5411 0.0000 0.0000 0.0000 -14.3461 -11.9593 -25.7728 0.0413 1.3116 3.6066 -0.0062 3.9538 -5.3742 2.0155 -8.8983 -25.4776 0.0000 0.0000 0.0000 10.3791 21.5511 -35.6214 -2.2739 -9.4146 27.1012 -1.7163 1.3471 -24.3932 -2.7577 10.2921 -29.9281 -6.8678 -3.7028 -19.4250 -0.5787 -3.1362 4.0921 2.1951 -2.0211 16.1125 -4.0236 1.4932 2.9663 7.0156 0.5543 26.6912 3.0566 0.3694 7.6499 -0.0000 0.0000 0.0000 19.6248 -6.0559 -30.6755 32.9766 -43.312 13.406 23.2262 -7.2928 11.6433 0.0 0.0 0.0 -7.1250 0.0 0.0 -2.7493 17.3504 -1.8064 -0.0000 0.0000 0.0000 -13.093 17.1802 30.6927 -40.8864 -48.5864 -19.1014 -2.7233 -2.9149 58.231 0.0 0.0 0.0 7.1250 0.0 -0.0 87.9756 73.1284 -70.2421
10.2141 16.5257 4.3461 -1.5990 -2.8099 26.3159 0.0000 0.0000 0.0000 -14.4027 -11.9362 -25.6076 0.0452 1.3725 3.7744 -0.0022 3.8469 -5.3941 2.0891 -9.0492 -25.9495 0.0000 0.0000 0.0000 10.5906 21.2026 -35.5303 -2.2471 -9.3629 26.9374 -1.7196 1.6827 -24.3276 -2.3422 9.5453 -27.5163 -6.7456 -3.7215 -19.5286 -0.5937 -3.1804 4.1249 2.0875 -2.0301 16.2108 -5.0236 1.5954 4.9452 8.7310 0.4234 24.4633 3.7194 0.2991 6.5441 0.0000 -0.0000 0.0000 19.3193 -6.24 -30.799 33.6828 -43.8483 13.8928 23.7392 -8.2247 12.0045 0.0 0.0 0.0 -7.1250 0.0 0.0 -2.4089 16.9093 -1.6056 0.0000 -0.0000 0.0000 -13.131 16.836 30.952 -41.0383 -48.6732 -19.2154 -1.9491 -3.4509 58.3492 0.0 0.0 0.0 7.1250 0.0 -0.0 88.4626 72.8677 -70.4444
10.1852 16.5247 4.3513 -1.4477 -2.7277 26.1841 0.0000 0.0000 0.0000 -14.5285 -11.7834 -25.6323 0.0511 1.4594 4.0139 0.0058 3.5616 -5.3464 2.2282 -9.3260 -26.8206 0.0000 0.0000 0.0000 10.6827 20.9803 -35.5188 -2.2523 -9.3730 26.9693 -1.6821 1.7597 -24.0341 -2.1810 9.2332 -26.5277 -6.7869 -3.7479 -19.6803 -0.5822 -3.1959 4.0727 2.1138 -2.0406 16.2452 -4.9109 1.7429 4.8954 8.3329 0.6688 25.0571 3.5929 0.4019 6.7372 0.0000 -0.0000 0.0000 18.9367 -6.4972 -31.067 34.0924 -44.1531 14.1774 24.1544 -9.1106 12.0062 0.0 0.0 0.0 -7.1250 0.0 0.0 -2.1201 16.8651 -1.4148 0.0000 -0.0000 0.0000 -13.3042 16.5434 31.4052 -41.1731 -48.7498 -19.3167 -1.8371 -3.454 57.1676 0.0 0.0 0.0 7.1250 0.0 -0.0 84.6543 72.7796 -66.4382
